<?xml version="1.0" encoding="UTF-8" standalone="no"?>
<!-- Created with Inkscape (http://www.inkscape.org/) -->

<svg
   xmlns:dc="http://purl.org/dc/elements/1.1/"
   xmlns:cc="http://creativecommons.org/ns#"
   xmlns:rdf="http://www.w3.org/1999/02/22-rdf-syntax-ns#"
   xmlns:svg="http://www.w3.org/2000/svg"
   xmlns="http://www.w3.org/2000/svg"
   xmlns:sodipodi="http://sodipodi.sourceforge.net/DTD/sodipodi-0.dtd"
   xmlns:inkscape="http://www.inkscape.org/namespaces/inkscape"
   width="744.09448"
   height="550"
   id="svg2"
   sodipodi:version="0.32"
   inkscape:version="0.48.1 "
   sodipodi:docname="OCR-A_char_Plus_Sign.svg"
   inkscape:output_extension="org.inkscape.output.svg.inkscape"
   version="1.1">
  <defs
     id="defs4">
    <inkscape:perspective
       sodipodi:type="inkscape:persp3d"
       inkscape:vp_x="0 : 526.18109 : 1"
       inkscape:vp_y="0 : 1000 : 0"
       inkscape:vp_z="744.09448 : 526.18109 : 1"
       inkscape:persp3d-origin="372.04724 : 350.78739 : 1"
       id="perspective10" />
  </defs>
  <sodipodi:namedview
     id="base"
     pagecolor="#ffffff"
     bordercolor="#666666"
     borderopacity="1.0"
     gridtolerance="10000"
     guidetolerance="10"
     objecttolerance="10"
     inkscape:pageopacity="0.0"
     inkscape:pageshadow="2"
     inkscape:zoom="0.49497475"
     inkscape:cx="393.917"
     inkscape:cy="483.21876"
     inkscape:document-units="px"
     inkscape:current-layer="layer1"
     showgrid="false"
     inkscape:window-width="645"
     inkscape:window-height="790"
     inkscape:window-x="411"
     inkscape:window-y="47"
     inkscape:window-maximized="0" />
  <metadata
     id="metadata7">
    <rdf:RDF>
      <cc:Work
         rdf:about="">
        <dc:format>image/svg+xml</dc:format>
        <dc:type
           rdf:resource="http://purl.org/dc/dcmitype/StillImage" />
        <dc:title></dc:title>
      </cc:Work>
    </rdf:RDF>
  </metadata>
  <g
     inkscape:label="Layer 1"
     inkscape:groupmode="layer"
     id="layer1"
     transform="translate(0,-502.36218)">
    <path
       style="font-size:1000px;font-style:normal;font-variant:normal;font-weight:normal;font-stretch:normal;fill:#000000;fill-opacity:1;stroke:none;font-family:OCRA;-inkscape-font-specification:OCRA"
       d="m 370.36549,546.35713 21,0 c 1.99964,0.66727 4.99964,2.00061 9,4 9.33296,4.66727 16.33295,12.00059 21,22 3.33294,6.00058 4.99961,20.00056 5,42 -3.9e-4,2.00054 -3.9e-4,17.00052 0,45 l 0,74 73,0 c 47.99949,4.2e-4 73.3328,0.33375 76,1 20.66611,4.00042 33.33276,15.66707 38,35 0.66609,4.00038 0.99942,8.00038 1,12 -5.8e-4,20.66702 -9.3339,35.00034 -28,43 -3.33388,2.00033 -7.00054,3.33366 -11,4 -2.6672,0.66699 -28.00051,1.00032 -76,1 l -73,0 0,74 c -3.9e-4,52.0002 -1.66706,81.00017 -5,87 -4.66705,10.00017 -11.66704,17.33347 -21,21.99997 -9.33369,4.6668 -18.33368,6.3335 -27,5 -3.33367,-0.6665 -7.00033,-1.6665 -11,-3 -6.00032,-1.9998 -11.66698,-5.6665 -17,-11 -5.33364,-5.33315 -9.0003,-10.99981 -11,-16.99997 -2.0003,-5.99983 -3.00029,-34.33313 -3,-85 l 0,-72 -75,0 -74,-1 -4,-1 c -22.00012,-6.66633 -33.66678,-21.99965 -35,-46 -1.1e-4,-22.66627 11.66655,-37.99959 35,-46 l 4,-2 74,0 75,0 0,-72 c -2.9e-4,-50.66612 0.9997,-78.99943 3,-85 1.9997,-5.33275 5.66636,-10.99941 11,-17 7.33302,-6.66607 15.66634,-10.99939 25,-13"
       id="text7752"
       inkscape:connector-curvature="0" />
  </g>
</svg>
